<?xml version="1.0" encoding="utf-8"?>
<!-- Generator: Adobe Illustrator 18.1.0, SVG Export Plug-In . SVG Version: 6.00 Build 0)  -->
<!DOCTYPE svg PUBLIC "-//W3C//DTD SVG 1.1//EN" "http://www.w3.org/Graphics/SVG/1.1/DTD/svg11.dtd">
<svg version="1.1" xmlns="http://www.w3.org/2000/svg" xmlns:xlink="http://www.w3.org/1999/xlink" x="0px" y="0px"
	 viewBox="0 0 237.1 219.6" enable-background="new 0 0 237.1 219.6" xml:space="preserve">
<g id="Layer_1">
	<g>
		<circle fill="#F3EB3C" cx="116.1" cy="108.8" r="103"/>
		<g>
			<g>
				<path fill="#231F20" d="M131.9,207.2c0,0-0.6,0.1-1.3,0.2c-0.6,0.1-1.3,0.1-1.3,0.1c8.3-1.1,16.9-3.3,25.1-6.5
					c-4.5,1.6-9.3,2.8-14.1,3.8c-4.9,1-9.8,1.6-14.6,2.1c-1.2,0.1-2.4,0.2-3.6,0.3c-1.2,0.1-2.4,0.1-3.5,0.2
					c-2.3,0.2-4.6,0.1-6.8,0.2c-2.2,0-4.4,0-6.4,0c-2-0.1-4,0-5.9-0.1c-0.3-0.4-1.7-0.9-3.6-1.5c-1.8-0.7-4.2-1.3-6.4-2.2
					c-4.6-1.5-8.8-3.3-9-3.2c-0.9-0.3-1.8-0.6-2.7-0.9c-0.9-0.3-1.8-0.7-2.7-1c-1.8-0.7-3.5-1.5-5.3-2.3c1.2,0.6,2.4,1.1,3.6,1.7
					c1.2,0.5,2.5,1,3.7,1.5c-1.2-0.5-2.5-1-3.7-1.5c-1.2-0.6-2.4-1.1-3.6-1.7c-11.1-5.3-21.5-13.4-30-23.6
					C31.1,162.4,24.6,150,21,136.7c-0.2-0.9-0.5-1.9-0.8-3.1c-0.2-1.1-0.5-2.3-0.8-3.6c-0.3-1.3-0.5-2.7-0.7-4.1
					c-0.1-0.7-0.3-1.5-0.4-2.2c-0.1-0.8-0.2-1.5-0.3-2.3c-0.7-6.2-0.9-13.4-0.3-20.5c0.6-7.1,2.1-14.1,4-20.1
					c1.9-6,4.1-11.1,5.9-14.5c1.1-2,2.1-4,3.3-5.9c-1,1.6-1.5,2.4-1.9,3.3c-0.4,0.8-0.9,1.6-1.8,3.3c0.4-1.1,1-2.1,1.5-3.2
					c0.5-1.1,1-2.1,1.5-3.1c0.5-1,1.1-2,1.6-3c0.6-1,1.1-1.9,1.7-2.9c0.5-1,1.1-1.9,1.8-2.8c0.6-0.9,1.2-1.8,1.8-2.7
					c1.3-1.7,2.5-3.5,3.9-5.1c-0.6,0.5-0.9,0.8-1.4,1.2c-0.5,0.5-1.2,1.2-2.4,2.5c0,0,0.7-0.8,1.4-1.7c0.7-0.8,1.4-1.6,1.4-1.6
					c0.5-0.8,1.3-1.9,2.2-3.1c1-1.1,2.1-2.3,3.2-3.6c1.2-1.2,2.3-2.4,3.4-3.4c1.1-1,2.1-2,2.9-2.7c-0.3,0.4,0.3,0.1,1.1-0.6
					c0.9-0.6,2.2-1.6,3.3-2.5l-1,0.6c4.5-3.4,9.6-6.7,14.9-9.5c5.3-2.8,10.6-5.1,15.5-6.5c1.3-0.5,2.4-0.6,3-0.7
					c0,0,0.6-0.2,1.4-0.4c0.9-0.3,2-0.6,3.2-0.9c1.2-0.3,2.3-0.6,3.2-0.8c0.9-0.2,1.5-0.3,1.5-0.3c-0.3,0.3,1.7,0,3.2-0.2
					c1.5-0.1,2.5-0.2,0.3,0.2c7.1-1.5,14.5-1.5,21.4-1.5c12.4,0.7,25,3.8,36.7,9.2c11.7,5.4,22.5,13.1,31.5,22.4l-0.3-0.6
					c3.2,3.2,6.1,6.4,8.9,10c2.8,3.6,5.5,7.6,7.9,12.6c2.1,3.4,4.1,7.8,5.8,11.6c0.8,2,1.6,3.8,2.1,5.3c0.6,1.5,1.1,2.8,1.5,3.5
					c0.6,2.3,1.1,4.2,1.5,5.9c0.4,1.8,0.7,3.3,1,4.9c0.3,1.6,0.6,3.2,0.8,4.9c0.2,1.8,0.5,3.7,0.6,6c0.2-1.2,0.3,1,0.5,3
					c0.2,2,0.2,3.6,0.4,1.4c0.4-6.1-0.1-6.5-0.1-11.7l-0.1,0.2c-1-12.1-4.3-24.1-9.5-35.3c-5.2-11.1-12.6-21.4-21.4-30.1
					c-6.1-5.6-13-11-20.6-15.4l-2.8-1.6l-2.9-1.5c-1.9-1-4-1.9-5.9-2.8c-4-1.7-8.1-3.2-12.3-4.3c-4.5-1.3-9.1-2.2-13.8-2.9
					c-2.4-0.3-4.7-0.6-7.1-0.7c-1.2-0.1-2.4-0.2-3.5-0.2c-1.2,0-2.3,0-3.5,0c-9.3-0.1-18.3,1.3-26,3.2C91,5.9,90.1,6,89.3,6.2
					c-0.8,0.2-1.6,0.4-2.3,0.6c-0.8,0.2-1.5,0.3-2.3,0.5c-0.8,0.2-1.5,0.4-2.3,0.6c-6.9,2.4-14.5,5.8-21.8,10.3
					c-7.2,4.5-14.2,10-19.9,15.9c0.2-0.2,0.4-0.4,0.6-0.6c-1.5,1.6-3,3-4.3,4.5c-1.3,1.5-2.6,2.8-3.8,4.3c-1.2,1.5-2.4,2.9-3.6,4.5
					c-0.6,0.8-1.2,1.6-1.8,2.4c-0.5,0.9-1.1,1.7-1.7,2.6c0.1,0-0.6,1.1-0.9,1.7c-0.2,0.1-0.6,0.9-1.4,2.2c-0.4,0.6-0.8,1.4-1.3,2.3
					c-0.4,0.9-0.9,1.9-1.5,3c-2.1,4.3-4.5,10.2-6.2,16.4c-1.8,6.1-2.8,12.5-3.4,17.4c-0.1,1.2-0.3,2.4-0.4,3.4c-0.1,1-0.1,2-0.2,2.8
					c-0.1,1.6-0.2,2.7-0.2,3.1c0,0.9,0,1.8,0,2.7c-0.3,8.9,0.4,18.1,2.2,26.8c1.7,8.7,4.7,16.8,8.3,23.7c0.4,0.7,0.9,1.5,1.3,2.2
					c0.5,0.7,1,1.5,1.5,2.2c0.5,0.7,1,1.4,1.4,2.1c0.5,0.6,1,1.2,1.4,1.8c0.6,1.2,1.1,1.9,1.7,2.6c0.6,0.7,1.2,1.4,2.1,2.8
					c2,3.7,4.1,6.3,5.2,7.6c1.2,1.3,1.4,1.3,0.1-0.5c4.6,5.1,9.6,9.9,14.4,13.7c2.2,1.7,4.6,3.3,7,4.8c2.1,1.2,3.1,2.1,4,3
					c5.5,3,3.7,2.3,9.5,5.3c0.3,0.2,1.4,0.8,2.9,1.4c1.5,0.7,3.5,1.3,5.4,2c2,0.6,4,1.2,5.6,1.6c1.6,0.4,2.8,0.7,3.3,0.9l-1-0.2
					c0.9,0.3,1.8,0.5,2.6,0.8c0.8,0.2,1.6,0.4,2.4,0.7c0.8,0.2,1.6,0.4,2.3,0.7c0.8,0.2,1.5,0.4,2.3,0.6c3,0.8,6.1,1.4,9.8,1.7
					c1.3,0.1,2.6,0.2,3.9,0.3c1.3,0.1,2.6,0.1,3.9,0.1l2,0.1l2,0c1.3,0,2.6,0,4-0.1c5.3-0.3,10.6-1,15.8-2.1
					c5.2-1.1,10.2-2.6,15-4.3c4.8-1.8,9.3-3.8,13.5-6.1c0-0.4-3.7,2-4.1,1.6c5-2.4,10-5.2,14.7-8.3c1.2-0.8,2.4-1.6,3.5-2.4l3.4-2.6
					c2.2-1.8,4.4-3.6,6.4-5.6c1.6-1.3,3.4-3,4.2-3.6c1.3-1.3,1.6-1.7,1.8-2.1c0.2-0.4,0.4-0.6,1.3-1.6l0.5,0
					c1.2-1.5,2.1-2.7,3.1-3.7c1-1,1.9-2.1,2.9-3.6c0-0.2,0.8-1.3,1.5-2.4c0.3,0.1,2.2-3.4,2.3-3.1l0,0c0.4-0.7,0.7-1.2,1.2-2
					c0.2-0.3,0.7-1.4,1.3-2.8c0.7-1.4,1.4-3.2,2.1-5c0.7-1.8,1.3-3.6,1.9-5.1c0.5-1.5,0.8-2.6,0.9-2.9l0.3-0.6
					c0.8-1.9,0.7-2.9,0.3-1.8l0.8-2.4l-0.1,0.3l0.8-2.4c0.2-0.4,0.5-0.9,0.4-0.2c0.3-1.4,0.7-3,1.1-4.4c-0.7,1.9-1.3,4.1-2.3,6.1
					c-0.4,1-0.9,2.1-1.3,3.1c-0.5,1-1,2-1.4,2.9c0.3-0.8,0.7-1.9,1.2-3.1c0.4-1.1,0.9-2.3,1.1-3.2c0.2-0.5,0.5-1.2,0.8-1.9
					c0.3-0.8,0.6-1.6,0.9-2.5c0.3-0.9,0.6-1.8,0.9-2.7c0.3-0.9,0.5-1.9,0.8-2.7c0.1-0.8-0.1-1.4,0.4-3.1c0.4-0.8,0.3-2,0.8-3.4
					c-0.2,1.7-0.5,3.3-0.9,5c0.4-0.2,1-4.1,1.3-5.4c0-0.6,0.5-3.9,0.7-6c0.2,0.9,0.3-1.7,0.6-2.9c0.1-1.4,0.1-2.3-0.1-1.8
					c-0.3-0.5-0.6,5.6-0.9,3.6c0.2-0.5,0.4-3.3,0.4-4.7c-0.2,0-0.2,1-0.3,0c0.1-1.6-0.1-3.4,0.1-4.3c0,0.3,0,1,0,1.5
					c0-1.1,0.3,1.8,0.4,4.7c0.1,2.9,0.1,5.7,0.2,4.3c-0.1,0.4-0.1-2.7-0.2-5.7c-0.2-3-0.4-5.9-0.4-5.1c-0.1,1.3-0.3-0.9-0.4,0.4
					l0.2,1.5c-0.1,1.8-0.5,2.6-0.6,1.9c0-0.8,0.1-0.6,0.2,0c0.1,0.6,0.2,1.8,0.3,2.9c0.1,2.3,0.2,4.6,0.2,3.3c0,0,0,0.3-0.1,0.5
					c0,0.3-0.1,0.5-0.1,0.5c0-1.1,0.1-4.1,0.4-5.3c-0.2,0-0.2-1.5-0.2-2.8l0-0.4c-0.1-1.3,0-3.1-0.2-2.3c-0.1,3.8-0.5,2.5-1,1.3
					c-0.5-1.3-0.9-2.5-1.1,1.1c0.2-1.5,0.3-1.3,0.4-0.2c0,1,0,2.8-0.1,4.4c-0.2,0.3-0.5,1.7-0.8,4c-0.2,2,0,1.2,0.1,1.6
					c-0.2,1.1-0.6,3.1-0.8,2.8c0,1.6-0.6,2.4-0.8,4.2c-0.2,1.6,0.1-0.1,0.1,1.1c-0.5,2.4-1.3,5.7-2,7.6c-0.4,0.7-1.4,2.8-1.2,1.1
					c1-3.5,0.1,1.5,1.1-2.2c-0.5,0.7-0.3-0.1,0-1.2c0.2-1.1,0.6-2.5,0.5-2.9c-0.2,0.6-0.5,1.5-0.7,2.4c-0.3,1-0.6,2.1-0.8,3.1
					l0.2-0.4c-0.2,0.9-0.5,2.2-1,3.5c-0.4,1.3-0.9,2.6-1.4,3.5c0-0.5-0.4,0.3,0-1c0,0-0.2,0.6-0.4,1.2c-0.2,0.6-0.5,1.2-0.5,1.2
					c-0.1,0.3-0.1,0.6,0.2,0c-0.3,1.1-0.8,2.2-1.2,3c-0.1,0.1-0.4,0.9-0.8,2c-0.5,1.1-1,2.7-1.7,4.2c-0.7,1.5-1.3,3-1.8,4
					c-0.5,1-0.9,1.7-0.8,1.6c-0.9,1.6-1.3,1.8-2.1,3.4c0,0,0.1-0.2,0.4-0.6c0.2-0.4,0.6-0.9,0.9-1.6c0.7-1.4,1.8-3.2,2.6-5.1
					c0.4-0.9,0.8-1.8,1.2-2.6c0.4-0.8,0.6-1.6,0.9-2.2c0.5-1.2,0.7-1.8,0.5-1.2c-0.2,0.3-0.8,1.7-1.6,3.5c-0.9,1.8-1.9,4.1-3.1,6.3
					c-1.1,2.3-2.5,4.4-3.5,6.1c-1.1,1.6-1.9,2.8-2.1,2.9c-0.7,1.1-1.7,2.4-1.4,2.3c-1.5,1.7,0.1-0.7-1,0.4c0,0,0.2,0-0.2,0.3
					l-1.1,1.1c-0.9,1.5-2.4,3-3.9,4.7c-0.8,0.8-1.5,1.6-2.2,2.3c-0.7,0.8-1.4,1.5-2,2.2c0.7-0.9,1.2-2,2.7-3.8l0.4-0.2
					c0.1-0.1,0.5-0.6,0.8-1c0.3-0.4,0.6-0.8,0.5-0.9c-0.8,0.8-1.5,1.5-2.2,2.3c-0.7,0.8-1.4,1.6-2.2,2.5c-0.3,0.3-0.7,0.6-1,0.8
					c0,0,0.1,0,0.1,0c-0.6,0.4-0.6,0.4-0.4,0.1c0,0,0-0.1,0.1-0.1c-0.7,0.3-2.2,1.9-4,3.6c-1.8,1.8-4,3.6-5.6,4.7
					c-0.9,0.8,0,0.1-1.2,1.1c-0.9,0.6-1.7,1.1-2.5,1.6c-0.8,0.5-1.6,0.9-2.3,1.3c-0.8,0.4-1.5,0.9-2.3,1.4c-0.8,0.4-1.7,0.9-2.7,1.4
					c-1.1,0.9-1.1,1,0.4,0.4c0,0-0.7,0.4-1.4,0.8c-0.7,0.4-1.5,0.7-1.5,0.7c2.4-1.9-5.7,2.3-3,0.2c-0.9,0.3-2.7,1.1-4.3,1.9
					c-0.1,0.2-0.3,0.6-2.4,1.4c-3,1-2.3,0.8-4.8,1.5c-0.7,0,0.2-0.4,0.1-0.5c-3.7,1.6-3.5,0.7-7.1,1.8c-2.3,0.7-6.9,1.7-6.9,2
					C131.6,207.7,131.6,207.5,131.9,207.2z"/>
			</g>
		</g>
	</g>
	<g opacity="0.8">
		<path fill="#BCBD32" d="M210.3,68.7c0.9,5.6,1.4,11.3,1.4,17.1c0,56.9-46.1,103-103,103c-42.6,0-79.2-25.9-94.9-62.9
			c8.1,48.7,50.5,85.9,101.5,85.9c56.9,0,103-46.1,103-103C218.4,94.6,215.5,81.1,210.3,68.7z"/>
	</g>
	<path fill="#231F20" d="M69.3,100.9c0,0,19.4,0.8,42,1c22.6,0.2,42-1,42-1c4.6,0,8.3,2.4,8.3,4.5v6.9c0,2.1-3.8,4.5-8.3,4.5
		c0,0-22.2,2.2-42,2.2c-19.8,0-42-2.2-42-2.2c-4.6,0-8.3-2.4-8.3-4.5v-6.9C60.9,103.2,64.7,100.9,69.3,100.9z"/>
</g>
<g id="Layer_2" display="none">
	<ellipse display="inline" fill="#231F20" cx="99.6" cy="72.7" rx="7" ry="11.3"/>
	<ellipse display="inline" fill="#231F20" cx="122.9" cy="72.7" rx="7" ry="11.3"/>
</g>
<g id="Layer_3">
	<line fill="none" x1="81.4" y1="63.2" x2="108.6" y2="63.2"/>
	<ellipse fill="#231F20" cx="89" cy="72.8" rx="17.7" ry="1.9"/>
	<ellipse fill="#231F20" cx="133" cy="72.8" rx="16.6" ry="1.9"/>
	<g>
	</g>
	<g>
	</g>
	<g>
	</g>
	<g>
	</g>
	<g>
	</g>
	<g>
	</g>
</g>
</svg>
