<?xml version="1.0" encoding="utf-8"?>
<!-- Generator: Adobe Illustrator 18.1.0, SVG Export Plug-In . SVG Version: 6.00 Build 0)  -->
<!DOCTYPE svg PUBLIC "-//W3C//DTD SVG 1.1//EN" "http://www.w3.org/Graphics/SVG/1.1/DTD/svg11.dtd">
<svg version="1.1" id="Layer_1" xmlns="http://www.w3.org/2000/svg" xmlns:xlink="http://www.w3.org/1999/xlink" x="0px" y="0px"
	 viewBox="0 0 707.1 382.9" enable-background="new 0 0 707.1 382.9" xml:space="preserve">
<rect x="24.9" y="24.6" fill="#E5D4AC" width="666.1" height="342.2"/>
<path fill="#231F20" d="M235.4,352.7l-8.4-0.1c27.1-0.1,55.5,0.3,83.6,0.7c-61-3.4-133.1-6.5-180.3,0.8c-5.1-3.9-64.4-5.7-65.6-4.7
	c-6.2,0.3-12.3,0.6-18.6,1c-3.1,0.1-6.1,0.3-9.2,0.4c-0.5,0.1-1.2,0.3-1.9,0.4l1.4-0.2c0.2,0,0.3-0.1,0.7-0.1l3.2-0.1
	c4.3-0.2,8.6-0.3,12.9-0.5c-4.3,0.2-8.6,0.3-12.9,0.5l-3.2,0.1c-0.4,0-0.4,0.1-0.7,0.1l-1.4,0.2c-0.4,0.1-0.8,0.1-1.2,0.2
	c-0.1-0.4-0.2-0.9-0.3-1.4l-0.1-0.8l-0.1-0.4l0-0.2l0-0.1l0-0.1l0-0.2c-0.1-4.9-0.3-9.9-0.4-14.9c-0.2-10-0.4-20-0.5-30.2
	c-0.2-20.3-0.3-41-0.2-62c0.2-41.9,0.8-85.1,1.6-128.9c0.1-10,0.3-23.5,0.5-39.2c0.1-7.8,0.2-16.2,0.2-25c0-4.2,0.1-8.5,0.1-12.9
	c0-0.7,0.1-1.4,0.1-2c0.5,0,1,0.1,1.5,0.1l0.4,0l0.2,0l0.1,0l0.6,0l5.1,0c6.8,0.1,13.6,0.1,20.5,0.2c13.6,0.1,27.1,0.3,39.8,0.4
	c25.5,0.3,48.1,0.6,63.3,0.9c7.4,0.1,14.7,0.3,22.2,0.4c-12.3-0.3-12.3-0.3-24.7-0.7c31-1,59.1-2,86.4-2.7c-4.8-0.6-5.6-1.1-17-1.9
	l13.9,0.4c12.7-1.6,41.8-1.5,55.5-2.2c-2.9,0.8,7.9,1,17.4,1.1l-3.8-0.6c36.2,0.3,78.2-0.3,110.5-0.2c4.5,0,7.9,0.3,9.9,0.6l31-0.7
	c-2.4,1.1,25.7,1,10.9,1.7c23.2-1.3,46.8-0.5,68.9-1.9c22.9-0.1,46.2-0.2,69.8-0.3c11.8-0.1,23.6-0.2,35.5-0.3
	c5.9-0.1,11.9-0.1,17.9-0.2l6.5-0.1l5-0.1l0.2,7.2l0.2,12.4c0.1,8.7,0.3,17.3,0.4,26c0.4,17.3,0.7,34.6,1.1,51.8l0.4-2
	c0.8,28.6,3,53.9,2.2,88.6c1.5,24.8,2.3,60.2,4.7,70.1c0.3,28.7,1.5,40.1,2.1,68.2c1.2-7.2,1.4,27.3,2.3,13.5
	c1.6-18.7,0.2-19.7,1.6-35.5l-0.4,0.5c1.8-73.9,2.8-147.8,3.3-222.7c-0.3-13.6-0.4-27.6-0.5-41.7c0-17.8,0-35.9,0-54
	c-15.7,0-31.4,0-47.1-0.1c-12,0-23.9,0-35.7,0.1c-55.9,0.4-116.4,1.2-164.4,2.2c-11.4,0.3-19.7-0.6-29.5-1.2
	c-44.1,0.5-100.3,0.1-150,0.8c0.9,0,1.8,0,2.4,0c-26.4,0.2-46.2-1-72.1-0.8c0.1,0.3-3.9,0.4-5.8,0.5c-2.2-0.8-40.2,0-78.8,0.9
	c-19.3,0.4-38.7,0.9-53.9,1.2c-7.6,0.1-14.1,0.2-19,0.3c-2.5,0-4.5,0-6.1,0c-0.8,0-1.5,0-2,0c-0.6,0-1.1-0.1-1.5-0.1
	c-4,0.1-8.2,0.1-12.4,0.2c-2.9,0-5.8-0.1-8.8-0.1c-0.1,4.9-0.1,9.9-0.2,14.8l-0.1,7.3l-0.1,5c-0.2,6.6-0.3,13.2-0.5,19.8
	c-0.4,13.2-0.8,26.3-1.2,39.1c-0.8,25.7-1.4,50.5-1.3,73.1c0.7,10.2,1.4,21.6,2.2,30.1c-0.7,8.3,0.6,9.9,0.4,19.8
	c-3.1,25.3-1.8,40.1-0.7,27.1c0.4,20.8,0.1,41.7,0.3,60.2c0.2,8.6,0.5,17.1,0.7,25.8c0.1,3.7,0.1,6.5-0.1,8.9
	c-0.1,1.2-0.2,2.3-0.3,3.3c0,0.3-0.1,0.6-0.1,0.8c0,0.4-0.1,0.8-0.1,1.2c-0.1,0.8-0.2,1.5-0.3,2.3c0.1,9.7,0.2,15.3,0.1,19.5
	c4.4,0.1,7.3,0.2,11.8,0.3c3.7,0.1,8.7,0.2,17.5,0.4c4.8,1.1,49.5-1.7,55-1.4l-3.2,0.2c22.8,0.2,37.9,2.3,60.2,2.4
	c61.9,0.8,129.6,0,186.9,0.4c0.6-1.1-12.7,0.3-13.3-1.3c33.8,0.2,68,1.6,102.1,1.8c6.2,0.3,13.7,0.9,16.5,1.2
	c10.9,0.4,6.4-0.5,14.4-0.4l1.1,1c11.7-0.8,17.1,1.1,28.1,0.7c0.6-0.4,4.6-0.5,8.5-0.4c0.2,1.1,12-0.1,11.5,0.9l0.1-0.1
	c2.4,0,4-0.1,6.9,0.1c4.5-0.4,46.4-3.4,50.9-3.8l2.1,0.2c6.3,0,9-0.8,5.3-1l7.7,0.1l-0.9,0.1l7.7,0.1c1.4,0.1,3,0.6,0.8,1.1
	c4.4-0.4,9.2-0.6,13.6-0.4c-12.1-0.7-27.2-1.6-39.8-2.7c5.2-0.4,14.6,0.2,20.3,0.1c6.7,0.7,20.6,1.3,31.4,1.8c2.4-0.1,4-1.3,9.4-0.7
	c2.6,0.8,6.1,0,10.5,0.6c-5.1,0.4-10.2,0.2-15.4,0.2c0.9,1,12.7,0.7,16.8,0.9c1.9-0.3,12,0,18.3-0.3c-2.8,1,5.1,0.6,8.8,1.1
	c4.3,0.1,7-0.3,5.3-0.6c1.4-1-16.9-0.6-11-1.7c1.6,0.5,9.9,0.3,14.4,0.3c0.1-0.6-3.1-0.4-0.2-1c5,0.1,10.3-0.6,13.1,0
	c-0.9,0.2-3,0.1-4.5,0c6.5,0.1-35.2,3.7-26.8,3.4c-2.2-0.5,37-3.4,32.7-3.4c-4-0.3,2.8-1-1.3-1.2l-4.6,0.7c-5.6-0.2-7.9-1.2-5.9-1.6
	c9.4,0.1-26.7,3.9-18.6,3.3l-3.3-0.3c3.4-0.4,12.5-0.7,16-0.1c0-0.6,4.6-0.8,8.4-1l1.3,0.1c3.9-0.3,9.4-0.2,6.9-0.9
	c-23,0.1,15.2-5.7-7.2-6c9.4,1.2-3.2,1.3-13,1.4c-1-0.4-5.3-1-12.4-1.4c-6.1,0.1-3.6,0.4-4.8,0.8c-3.4-0.3-9.9-0.5-9-1.2
	c-4.8,0.8-7.6-0.5-13.3-0.2c-5,0.4,0.3,0.3-3.2,0.7c-7.6-0.1-18.2-0.2-24.2-0.3c-2.3-0.6-9.4-1.7-4.3-2.6c11.5,0.1-4.4,1.5,7.6,1.3
	c-5.1-1.4,10.6-0.4,12.7-1.4c-3.8-0.6-11.5-0.6-17.9-0.5l1.3,0.2c-5.7,0.2-17,0.5-23.2-0.3c1.4-0.5-1.2-0.9,2.9-1l-7.8-0.1
	c-1,0.2-2,0.3,0.2,0.4c-3.7,0.4-7.4,0.2-10.2-0.1c-0.9-0.5-41.6,2.2-40.3,1.8c-5.6,0-7-0.8-12.5-0.2c-0.1,0.1,3.1,0,8-0.1
	c4.9-0.2,11.4-0.4,17.7-0.6c12.6-0.5,24.3-1,20.6-0.9c-4.8-0.6-63.8,2.6-67.3,1.6c-4.2,0-9.2,0.1-8.2,0.7c-7.1-0.3,2.1-1-2.9-1.5
	c-0.1,0.1,0.4,0.3-1.2,0.2l-4.8-0.7c-10.9,0.8-27-0.2-38.5,0.8c3.3-0.6,7.1-1.6,14.5-2.1l1.3,0.3c1-0.2,7.1-0.3,6.9-0.9
	c-7-0.3-13-0.3-20.4,0.3c-1.4-0.1-2.9-0.3-4-0.4c0,0.1,0.1,0.1,0.1,0.2c-2.4-0.3-2.2-0.4-1.3-0.6c0.1,0,0.3-0.1,0.5-0.1
	c-4.4-1.5-27.5,1-40.3,0.2c-3.8,0.2-0.4,0.3-5,0.6c-13.1-0.6-22.1-1.1-35.8-1.4c-4.4,0.7-4.7,0.9,0.6,1.6l-10.3-0.2
	c9.4-1.8-19.3-1.7-8.9-3.4c-3-0.4-9.2-0.5-15-0.2c-0.6,0.4-1.5,1.2-8.8,1.2c-10.1-0.6-7.7-0.4-16.1-0.9c-2-0.6,1.1-0.8,0.7-1.3
	c-12.9,0.7-11.3-1.3-23.5-1.1c-7.6,0.2-22.7,0.2-23.1,1.2C234.3,354.2,234.3,353.5,235.4,352.7"/>
<g>
	<rect x="54.3" y="58.6" fill="none" width="601.4" height="271.4"/>
	<path d="M75.7,81.3c0,0.9-0.2,1.8-0.6,2.5c-2,3.6-5.5,5.4-10.4,5.4c-1.5,0-3.5-0.3-5.8-0.9c0,0.1,0,0.1,0,0.2
		c0,0.1,0.1,0.4,0.2,0.9c-0.1,0.4-0.3,0.6-0.7,0.7L58,89.8c-0.6,0.1-0.9-0.2-1-0.9c-0.1-1-0.2-1.5-0.2-1.6c-0.1-0.1-0.4-0.3-0.9-0.5
		c-0.4-0.2-0.6-0.4-0.6-0.8c0-0.4,0.2-0.7,0.7-0.7c0.4,0,0.7-0.1,0.7-0.3c0,0,0-0.2,0-0.7c0-0.5,0-1.3,0.1-2.4
		c0-1.1,0.1-1.9,0.1-2.5v-1.6c-0.7-0.2-1-0.5-1-0.8c0-0.4,0.3-0.8,0.9-1.1V60.7c0-0.2,0.2-0.5,0.5-0.9c0.3-0.4,0.6-0.5,0.9-0.5
		c0.5,0,0.7,0,0.8,0.1c0.2,0.2,0.3,0.4,0.5,0.6c-0.5,2.8-0.7,4.7-0.7,5.9l0,0.3c2-5.2,5.1-7.9,9.1-7.9c2.3,0,4.1,0.9,5.4,2.7
		c1.1,1.6,1.7,3.6,1.7,6c0,1.8-0.4,3.6-1.3,5.3c-1,2-2.2,3.3-3.7,3.8C73.7,76.6,75.7,78.3,75.7,81.3z M73.5,81
		c0-1.6-1.6-2.7-4.8-3.2c-1.3-0.2-3.6-0.3-6.8-0.3c-1.3,0-2.3,0.1-3,0.3c0,1,0,3,0,6.2c0,0.8,0,1.5,0.1,2.1c1.4,0.8,3.4,1.3,5.7,1.3
		c1.9,0,3.8-0.6,5.6-1.7C72.4,84.3,73.5,82.8,73.5,81z M72.5,66.8c0-4.5-1.6-6.8-4.9-6.8c-2.2,0-4.3,1.5-6.1,4.4
		C59.8,67,59,69.5,59,71.9v4c-0.1,0,1,0,3.3,0c3.5,0,6-0.6,7.5-1.8C71.6,72.6,72.5,70.2,72.5,66.8z"/>
	<path d="M81.5,88.8c0,0.8-0.4,1.2-1.3,1.2c-1.3,0-2-2.7-1.9-8.1l0.1-20.2c0-0.3,0-0.8-0.1-1.4c-0.1-0.6-0.1-1.1-0.1-1.4
		c0.6-0.4,1-0.6,1.4-0.6c0.4,0,0.8,0.2,1.3,0.4c0.4,0.3,0.6,0.7,0.6,1.1c0,0.3-0.1,0.7-0.2,1.2c-0.2,0.6-0.3,1-0.3,1.1
		c-0.4,2-0.5,4.9-0.5,8.6c0,5.9,0,8.8,0,8.5c0.1,3.7,0.3,6.5,0.7,8.3c0,0.1,0.1,0.3,0.2,0.6C81.4,88.4,81.5,88.6,81.5,88.8z"/>
	<path d="M97.4,90.6c0,0.4-0.3,0.6-1,0.6c-0.7,0-1.2-0.3-1.3-0.9c0-0.1,0-0.7,0-1.8c0-0.3,0-0.5-0.1-0.7c-1.7,1.2-3.5,1.8-5.4,1.8
		c-1.4,0-2.7-0.4-3.9-1.1c-1.4-0.8-2.2-1.9-2.2-3.1c0-1.2,0.9-2.4,2.6-3.6c1.6-1.1,3-1.6,4.3-1.6h4.5c0.2-0.2,0.3-0.5,0.3-0.9
		c0-2-0.2-3.5-0.5-4.5c-0.5-1.7-1.6-2.6-3.2-2.6c-1.1,0-2.2,0.7-3.1,2.2c-0.9,1.3-1.3,2.6-1.3,3.8c0,0.1,0,0.2,0,0.3
		c0,0.1,0,0.2,0,0.2c0,0.2-0.1,0.4-0.4,0.4c-0.3,0-0.6-0.2-1-0.5c-0.4-0.4-0.5-0.7-0.5-0.9c0-0.8,0.3-1.9,0.8-3.2
		c0.5-1.3,1.1-2.2,1.7-2.9c0.7-0.8,1.7-1.2,2.8-1.2c1.7,0,3.3,0.5,4.7,1.6c1.5,1.2,2.3,2.6,2.3,4.2L97.4,90.6z M95,83.4
		c0-1.2-0.9-1.8-2.8-1.8c-1.5,0-2.8,0.3-3.9,0.8c-1.4,0.7-2.1,1.6-2.1,3c0,0.8,0.4,1.4,1.1,1.9c0.6,0.4,1.4,0.6,2.2,0.6
		c1.3,0,2.5-0.4,3.7-1.3C94.4,85.7,95,84.7,95,83.4z"/>
	<path d="M113.3,90.5c-0.2,0.2-0.7,0.4-1.4,0.4c-0.3,0-0.7-0.2-1-0.6c0-2.6,0-4.6,0-6.2c0-7.6-1.3-11.4-3.8-11.4
		c-1.1,0-2,0.6-2.7,1.9c-0.6,1.1-0.9,2.2-0.9,3.3c0,0.1,0,0.3-0.1,0.6c-0.1,0.3-0.1,0.4-0.1,0.6v5.8c0,0.5,0.1,1.2,0.2,2.2
		c0.1,1,0.2,1.7,0.2,2.2s-0.4,0.7-1.1,0.7c-0.5,0-0.9-0.2-1.3-0.7c-0.3-0.5-0.5-1-0.5-1.5l0.3-27.7c-0.1-0.2-0.1-0.4-0.1-0.5
		c0-0.5,0.3-0.8,0.9-0.8c0.3,0,0.7,0.2,1.3,0.6c0.6,0.4,0.9,0.7,0.9,1c0,0.7-0.1,1.8-0.4,3.1c-0.3,1.4-0.4,2.4-0.4,3.1
		c0,0.1,0,2.1,0.1,6c1.1-1,2-1.5,2.6-1.5c1,0,2.1,0.3,3.5,0.9c2.6,1.1,3.9,3.9,3.9,8.5V90.5z"/>
	<path d="M138.5,79.3c0,2.6-0.4,4.8-1.1,6.6c-1,2.5-2.6,3.7-4.9,3.7c-0.6,0-1.3-0.2-2.3-0.5c-0.8-0.3-1.5-0.5-2.2-0.8
		c-0.1,0.2-0.1,0.4-0.1,0.6c0,0.2,0,0.4,0,0.7c0,0.3,0,0.5,0,0.7c0,0.5-0.3,0.7-0.8,0.7c-0.5,0-0.9-0.2-1.3-0.6
		c-0.2-0.2-0.4-1.1-0.5-2.7c-0.1-1.2-0.1-2.2-0.1-2.9v-0.3l0.9-25.1h0.6c0.4,0,0.8,0.2,1.2,0.7c0.4,0.4,0.6,0.9,0.6,1.3
		c0,1.1-0.1,2.8-0.4,5c-0.3,2.2-0.4,3.8-0.4,5c0,0.1,0,0.7,0,1.7c0.2-0.1,0.5-0.4,0.9-1c0.4-0.7,0.8-1.3,1.2-1.6
		c0.6-0.5,1.3-0.8,2.2-0.8c1.5,0,2.8,0.6,4,1.8c1.1,1.1,1.8,2.4,2.2,3.9C138.4,76.2,138.5,77.6,138.5,79.3z M136.1,79.5
		c0-1.9-0.2-3.5-0.6-4.8c-0.6-2.1-1.5-3.2-2.9-3.2c-1.7,0-3,1.2-3.9,3.7c-0.8,1.9-1.1,3.9-1.1,5.8c0,1.7,0.3,3.2,0.9,4.5
		c0.7,1.7,1.9,2.5,3.4,2.5c1.5,0,2.7-1.1,3.4-3.2C135.8,83.2,136.1,81.5,136.1,79.5z"/>
	<path d="M144.8,88.8c0,0.8-0.4,1.2-1.3,1.2c-1.3,0-2-2.7-1.9-8.1l0.1-20.2c0-0.3,0-0.8-0.1-1.4c-0.1-0.6-0.1-1.1-0.1-1.4
		c0.6-0.4,1-0.6,1.4-0.6c0.4,0,0.8,0.2,1.3,0.4c0.4,0.3,0.6,0.7,0.6,1.1c0,0.3-0.1,0.7-0.2,1.2c-0.2,0.6-0.3,1-0.3,1.1
		c-0.4,2-0.5,4.9-0.5,8.6c0,5.9,0,8.8,0,8.5c0.1,3.7,0.3,6.5,0.7,8.3c0,0.1,0.1,0.3,0.2,0.6C144.7,88.4,144.8,88.6,144.8,88.8z"/>
	<path d="M160.7,90.6c0,0.4-0.3,0.6-1,0.6c-0.7,0-1.2-0.3-1.3-0.9c0-0.1,0-0.7,0-1.8c0-0.3,0-0.5-0.1-0.7c-1.7,1.2-3.5,1.8-5.4,1.8
		c-1.4,0-2.7-0.4-3.9-1.1c-1.4-0.8-2.2-1.9-2.2-3.1c0-1.2,0.9-2.4,2.6-3.6c1.6-1.1,3-1.6,4.3-1.6h4.5c0.2-0.2,0.3-0.5,0.3-0.9
		c0-2-0.2-3.5-0.5-4.5c-0.5-1.7-1.6-2.6-3.2-2.6c-1.1,0-2.2,0.7-3.1,2.2c-0.9,1.3-1.3,2.6-1.3,3.8c0,0.1,0,0.2,0,0.3
		c0,0.1,0,0.2,0,0.2c0,0.2-0.1,0.4-0.4,0.4c-0.3,0-0.6-0.2-1-0.5c-0.4-0.4-0.5-0.7-0.5-0.9c0-0.8,0.3-1.9,0.8-3.2
		c0.5-1.3,1.1-2.2,1.7-2.9c0.7-0.8,1.7-1.2,2.8-1.2c1.7,0,3.3,0.5,4.7,1.6c1.5,1.2,2.3,2.6,2.3,4.2L160.7,90.6z M158.3,83.4
		c0-1.2-0.9-1.8-2.8-1.8c-1.5,0-2.8,0.3-3.9,0.8c-1.4,0.7-2.1,1.6-2.1,3c0,0.8,0.4,1.4,1.1,1.9c0.6,0.4,1.4,0.6,2.2,0.6
		c1.3,0,2.5-0.4,3.7-1.3C157.7,85.7,158.3,84.7,158.3,83.4z"/>
	<path d="M176.6,90.5c-0.2,0.2-0.7,0.4-1.4,0.4c-0.3,0-0.7-0.2-1-0.6c0-2.6,0-4.6,0-6.2c0-7.6-1.3-11.4-3.8-11.4
		c-1.1,0-2,0.6-2.7,1.9c-0.6,1.1-0.9,2.2-0.9,3.3c0,0.1,0,0.3-0.1,0.6c-0.1,0.3-0.1,0.4-0.1,0.6v5.8c0,0.5,0.1,1.2,0.2,2.2
		c0.1,1,0.2,1.7,0.2,2.2s-0.4,0.7-1.1,0.7c-0.5,0-0.9-0.2-1.3-0.7c-0.3-0.5-0.5-1-0.5-1.5l0.3-27.7c-0.1-0.2-0.1-0.4-0.1-0.5
		c0-0.5,0.3-0.8,0.9-0.8c0.3,0,0.7,0.2,1.3,0.6c0.6,0.4,0.9,0.7,0.9,1c0,0.7-0.1,1.8-0.4,3.1c-0.3,1.4-0.4,2.4-0.4,3.1
		c0,0.1,0,2.1,0.1,6c1.1-1,2-1.5,2.6-1.5c1,0,2.1,0.3,3.5,0.9c2.6,1.1,3.9,3.9,3.9,8.5V90.5z"/>
	<path d="M201.8,79.3c0,2.6-0.4,4.8-1.1,6.6c-1,2.5-2.6,3.7-4.9,3.7c-0.6,0-1.3-0.2-2.3-0.5c-0.8-0.3-1.5-0.5-2.2-0.8
		c-0.1,0.2-0.1,0.4-0.1,0.6c0,0.2,0,0.4,0,0.7c0,0.3,0,0.5,0,0.7c0,0.5-0.3,0.7-0.8,0.7c-0.5,0-0.9-0.2-1.3-0.6
		c-0.2-0.2-0.4-1.1-0.5-2.7c-0.1-1.2-0.1-2.2-0.1-2.9v-0.3l0.9-25.1h0.6c0.4,0,0.8,0.2,1.2,0.7c0.4,0.4,0.6,0.9,0.6,1.3
		c0,1.1-0.1,2.8-0.4,5c-0.3,2.2-0.4,3.8-0.4,5c0,0.1,0,0.7,0,1.7c0.2-0.1,0.5-0.4,0.9-1c0.4-0.7,0.8-1.3,1.2-1.6
		c0.6-0.5,1.3-0.8,2.2-0.8c1.5,0,2.8,0.6,4,1.8c1.1,1.1,1.8,2.4,2.2,3.9C201.7,76.2,201.8,77.6,201.8,79.3z M199.4,79.5
		c0-1.9-0.2-3.5-0.6-4.8c-0.6-2.1-1.5-3.2-2.9-3.2c-1.7,0-3,1.2-3.9,3.7c-0.8,1.9-1.1,3.9-1.1,5.8c0,1.7,0.3,3.2,0.9,4.5
		c0.7,1.7,1.9,2.5,3.4,2.5c1.5,0,2.7-1.1,3.4-3.2C199.2,83.2,199.4,81.5,199.4,79.5z"/>
	<path d="M208.1,88.8c0,0.8-0.4,1.2-1.3,1.2c-1.3,0-2-2.7-1.9-8.1l0.1-20.2c0-0.3,0-0.8-0.1-1.4c-0.1-0.6-0.1-1.1-0.1-1.4
		c0.6-0.4,1-0.6,1.4-0.6c0.4,0,0.8,0.2,1.3,0.4c0.4,0.3,0.6,0.7,0.6,1.1c0,0.3-0.1,0.7-0.2,1.2c-0.2,0.6-0.3,1-0.3,1.1
		c-0.4,2-0.5,4.9-0.5,8.6c0,5.9,0,8.8,0,8.5c0.1,3.7,0.3,6.5,0.7,8.3c0,0.1,0.1,0.3,0.2,0.6C208,88.4,208.1,88.6,208.1,88.8z"/>
	<path d="M224,90.6c0,0.4-0.3,0.6-1,0.6c-0.7,0-1.2-0.3-1.3-0.9c0-0.1,0-0.7,0-1.8c0-0.3,0-0.5-0.1-0.7c-1.7,1.2-3.5,1.8-5.4,1.8
		c-1.4,0-2.7-0.4-3.9-1.1c-1.4-0.8-2.2-1.9-2.2-3.1c0-1.2,0.9-2.4,2.6-3.6c1.6-1.1,3-1.6,4.3-1.6h4.5c0.2-0.2,0.3-0.5,0.3-0.9
		c0-2-0.2-3.5-0.5-4.5c-0.5-1.7-1.6-2.6-3.2-2.6c-1.1,0-2.2,0.7-3.1,2.2c-0.9,1.3-1.3,2.6-1.3,3.8c0,0.1,0,0.2,0,0.3
		c0,0.1,0,0.2,0,0.2c0,0.2-0.1,0.4-0.4,0.4c-0.3,0-0.6-0.2-1-0.5c-0.4-0.4-0.5-0.7-0.5-0.9c0-0.8,0.3-1.9,0.8-3.2
		c0.5-1.3,1.1-2.2,1.7-2.9c0.7-0.8,1.7-1.2,2.8-1.2c1.7,0,3.3,0.5,4.7,1.6c1.5,1.2,2.3,2.6,2.3,4.2L224,90.6z M221.6,83.4
		c0-1.2-0.9-1.8-2.8-1.8c-1.5,0-2.8,0.3-3.9,0.8c-1.4,0.7-2.1,1.6-2.1,3c0,0.8,0.4,1.4,1.1,1.9c0.6,0.4,1.4,0.6,2.2,0.6
		c1.3,0,2.5-0.4,3.7-1.3C221,85.7,221.6,84.7,221.6,83.4z"/>
	<path d="M239.9,90.5c-0.2,0.2-0.7,0.4-1.4,0.4c-0.3,0-0.7-0.2-1-0.6c0-2.6,0-4.6,0-6.2c0-7.6-1.3-11.4-3.8-11.4
		c-1.1,0-2,0.6-2.7,1.9c-0.6,1.1-0.9,2.2-0.9,3.3c0,0.1,0,0.3-0.1,0.6c-0.1,0.3-0.1,0.4-0.1,0.6v5.8c0,0.5,0.1,1.2,0.2,2.2
		c0.1,1,0.2,1.7,0.2,2.2s-0.4,0.7-1.1,0.7c-0.5,0-0.9-0.2-1.3-0.7c-0.3-0.5-0.5-1-0.5-1.5l0.3-27.7c-0.1-0.2-0.1-0.4-0.1-0.5
		c0-0.5,0.3-0.8,0.9-0.8c0.3,0,0.7,0.2,1.3,0.6c0.6,0.4,0.9,0.7,0.9,1c0,0.7-0.1,1.8-0.4,3.1c-0.3,1.4-0.4,2.4-0.4,3.1
		c0,0.1,0,2.1,0.1,6c1.1-1,2-1.5,2.6-1.5c1,0,2.1,0.3,3.5,0.9c2.6,1.1,3.9,3.9,3.9,8.5V90.5z"/>
</g>
<g>
</g>
<g>
</g>
<g>
</g>
<g>
</g>
<g>
</g>
<g>
</g>
</svg>
