<?xml version="1.0" encoding="utf-8"?>
<!-- Generator: Adobe Illustrator 18.1.0, SVG Export Plug-In . SVG Version: 6.00 Build 0)  -->
<!DOCTYPE svg PUBLIC "-//W3C//DTD SVG 1.1//EN" "http://www.w3.org/Graphics/SVG/1.1/DTD/svg11.dtd">
<svg version="1.1" id="Layer_1" xmlns="http://www.w3.org/2000/svg" xmlns:xlink="http://www.w3.org/1999/xlink" x="0px" y="0px"
	 viewBox="0 0 423.9 385.9" enable-background="new 0 0 423.9 385.9" xml:space="preserve">
<rect x="191.5" y="195.9" fill="#544319" width="33" height="157"/>
<path fill="#231F20" d="M221.5,193.8l0,2.4c0-7.8,0.1-16,0.2-24.1c-0.9,17.6-1.8,38.4,0.2,52c-1.1,1.5-1.6,18.6-1.3,18.9
	c0.2,3.5,0.4,7.1,0.5,10.8c-0.1-2.5-0.2-5-0.3-7.5c0.1,2.5,0.2,5,0.3,7.5c0.8,23,0.5,47.9,0.1,73.7c-0.1,5-0.2,13.6-0.3,23l-0.3,0
	l-0.2,0c-0.1,0,0.1,0-0.4,0c-1.4,0-2.9,0-4.4,0c-2.9,0-5.8-0.1-8.7-0.1c-2.8,0-5.6-0.1-8.3-0.1c-1.2,0-2.4,0-3.5,0
	c-0.1,0-0.2,0-0.2,0c0-0.1,0-0.1,0-0.2l0-0.1l0,0l0,0l0-0.1c0-0.2,0-0.4,0-0.5c0-1.4,0-2.7,0.1-3.9c0-2.1,0.1-4.2,0.1-6.4
	c-0.1,3.6-0.1,3.6-0.2,7.1c-0.3-9-0.6-17.1-0.7-24.9c-0.2,1.4-0.3,1.6-0.5,4.9l0.1-4c-0.4-3.7-0.4-12.1-0.6-16
	c0.2,0.9,0.3-2.3,0.3-5l-0.2,1.1c0.1-10.4-0.1-22.6-0.1-31.9c0-1.3,0.1-2.3,0.2-2.9l-0.2-8.9c0.3,0.7,0.3-7.4,0.5-3.2
	c-0.4-6.7-0.1-13.5-0.5-19.9c0-22.8-0.3-47.1-0.8-70.7l-0.1,0.6c-0.2-8.3-0.8-15.5-0.6-25.6c-0.4-7.2-0.6-17.4-1.3-20.2
	c-0.1-8.3-0.4-11.6-0.6-19.7c-0.3,2.1-0.4-7.9-0.6-3.9c-0.4,5.4-0.1,5.7-0.4,10.2l0.1-0.1c-0.5,21.3-0.8,42.7-0.9,64.3
	c0.3,14.4,0,30.1,0.1,45c0.1,16.1,0.3,33.6,0.6,47.4c0.1,3.3-0.2,5.7-0.3,8.5c0.1,12.7,0,28.9,0.2,43.3c0-0.3,0-0.5,0-0.7
	c0.1,7.6-0.3,13.3-0.2,20.8c0.1,0,0.1,1.1,0.1,1.7c-0.1,0.3-0.1,2.4-0.1,5.6c0.1,3.8,0.1,9,0.2,14.5c2.4,0,4.8-0.1,7.3-0.1
	c1.6,0,3.2-0.1,4.8-0.1c3.2-0.1,6.3-0.1,9-0.2c5.5-0.1,9.6-0.2,10.3-0.1c1.1,0,2.3,0,3.5,0c0.8,0,1.7,0,2.5,0c0-2.6,0.1-5.1,0.1-7.7
	c0-1.9,0.1-3.8,0.1-5.7c0.1-3.8,0.2-7.6,0.3-11.3c0.2-7.4,0.4-14.6,0.3-21.1c-0.2-2.9-0.4-6.2-0.6-8.7c0.2-2.4-0.2-2.8-0.1-5.7
	c0.8-7.3,0.5-11.6,0.2-7.8c-0.1-6,0-12-0.1-17.4c-0.1-2.5-0.1-4.9-0.2-7.4c-0.1-2.1,0.1-3.3,0.3-4.4c-0.1-5.4,0.1-3.8,0.2-9.5
	c0.3-1.4-0.5-14.3-0.4-15.9l0,0.9c0.1-6.6,0.6-10.9,0.7-17.4c0.2-17.9,0-37.4,0.1-53.9c-0.3-0.2,0.1,3.7-0.3,3.8
	c0.1-9.8,0.4-19.6,0.5-29.5c0.1-1.8,0.2-3.9,0.3-4.8c0.1-3.1-0.1-1.9-0.1-4.2l0.3-0.3c-0.2-3.4,0.3-4.9,0.2-8.1
	c-0.1-0.2-0.1-1.3-0.1-2.5c0.3-0.1,0-3.5,0.3-3.3l0,0c0-0.7,0-1.2,0-2c0-0.6-0.3-4-0.5-7.3c-0.1-1.7-0.2-3.3-0.3-4.7
	c-0.1-2.2-0.2-3.9-0.2-4.5l0-1.1c0-0.6,0-1.1,0-1.6c-2,0.1-2.7,0.2-1.3,0.3l-3.7,0l0.4,0l-3.2,0c-0.4,0-0.9-0.2-0.2-0.3
	c-1.3,0.1-2.7,0.2-3.9,0.1c1.4,0.1,2.9,0.2,4.4,0.2c2.3,0.1,4.7,0.2,6.9,0.3c-0.1,1.5-0.1,2.8-0.2,4.1c0-1,0-2.4,0-3.9
	c-1.8,0-3.7-0.1-5.1,0c-1.1-0.1-2.7-0.2-4.4-0.3c-1.6-0.1-3.4-0.2-5-0.2c-0.7,0-1.2,0.3-2.7,0.2c-0.8-0.2-1.8,0-3-0.2
	c1.5-0.1,2.9-0.1,4.4-0.1c-0.3-0.3-3.7-0.2-4.8-0.3c-0.6,0.1-3.5,0-5.3,0.1c0.8-0.3-1.5-0.2-2.6-0.3c-1.2,0-2,0.1-1.5,0.2
	c-0.4,0.3,4.9,0.2,3.2,0.5c-0.5-0.1-2.9-0.1-4.1-0.1c0,0.2,0.9,0.1,0,0.3c-1.4,0-3,0.2-3.8,0c0.3,0,0.9,0,1.3,0
	c-1.9,0,10.2-1,7.7-0.9c0.6,0.1-10.7,0.9-9.4,0.9c1.1,0.1-0.8,0.3,0.4,0.3l1.3-0.2c1.6,0.1,2.3,0.3,1.7,0.4c-2.7,0,7.7-1.1,5.4-0.9
	l0.9,0.1c-1,0.1-3.6,0.2-4.6,0c0,0.2-1.3,0.2-2.4,0.3l-0.4,0c-1.1,0.1-2.7,0-2,0.2c6.6,0-4.4,1.6,2.1,1.6c-2.7-0.3,0.9-0.3,3.7-0.4
	c0.3,0.1,1.5,0.3,3.6,0.4c1.8,0,1-0.1,1.4-0.2c1,0.1,2.8,0.1,2.6,0.3c1.4-0.2,2.2,0.1,3.8,0.1c1.5-0.1-0.1-0.1,0.9-0.2
	c2.2,0,5.2,0.1,7,0.1c0.7,0.2,2.7,0.5,1.2,0.7c-3.3,0,1.3-0.4-2.2-0.4c1.5,0.4-3,0.1-3.7,0.4c1.1,0.2,3.3,0.2,5.2,0.1l-0.4-0.1
	c0.8,0,2-0.1,3.3-0.1c1.2,0,2.3,0,3,0.1c-0.5,0.1,0.1,0.2-0.9,0.3l1.3,0l0,0.6c0,0.2,0.1,0.4,0.1-0.2c0.1,0.8,0,1.8,0,2.5
	c0,0,0,0.2,0,0.5c0,0.3,0,0.8,0,1.4c0.1,1.1,0.1,2.6,0.2,4.1c0.2,2.9,0.3,5.8,0.3,5.6c0,1.6-0.2,2-0.1,3.6c0,0,0-0.9,0-2.3
	c0-1.4-0.1-3.3-0.2-5.1c-0.1-3.6-0.3-7-0.2-5.9c-0.2,1.4,0.7,18.4,0.4,19.4c0,1.2,0,2.7,0.2,2.4c-0.1,2-0.3-0.6-0.4,0.8
	c0,0,0.1-0.1,0.1,0.3l-0.2,1.4c0.2,3.2-0.1,7.8,0.2,11.1c-0.2-1-0.4-2-0.6-4.2l0.1-0.4c0-0.3-0.1-2.1-0.2-2c-0.1,2-0.1,3.8,0.1,5.9
	c0,0.4-0.1,0.8-0.1,1.2c0,0,0,0,0.1,0c-0.1,0.7-0.1,0.6-0.2,0.4c0,0,0-0.1,0-0.1c-0.4,1.3,0.3,7.9,0,11.6c0.1,1.1,0.1,0.1,0.2,1.5
	c-0.2,3.8-0.3,6.4-0.4,10.3c0.2,1.3,0.3,1.4,0.4-0.2l-0.1,3c-0.5-2.7-0.5,5.6-0.9,2.6c-0.1,0.9-0.1,2.7-0.1,4.3
	c0.1,0.2,0.3,0.4,0.3,2.5c-0.2,2.9-0.1,2.2-0.3,4.6c-0.2,0.6-0.2-0.3-0.3-0.2c0.2,3.7-0.3,3.3-0.3,6.8c0,2.2,0.1,6.6,0.3,6.7
	C221.9,194.1,221.7,194.1,221.5,193.8"/>
<rect x="41.2" y="26.9" fill="#E5D4AC" width="333" height="171.1"/>
<g>
	<path fill="#010101" d="M101.1,121.9H90.7v9.7h11.7v2.9H87.2v-27h14.6v2.9H90.7v8.5h10.5V121.9z"/>
	<path fill="#010101" d="M111.2,126.1l-2.8,8.5h-3.6l9.2-27h4.2l9.2,27h-3.7l-2.9-8.5H111.2z M120.1,123.4l-2.6-7.8
		c-0.6-1.8-1-3.4-1.4-4.9h-0.1c-0.4,1.6-0.8,3.2-1.4,4.9l-2.6,7.8H120.1z"/>
	<path fill="#010101" d="M136.5,110.6h-8.2v-3h20v3H140v24h-3.5V110.6z"/>
	<path fill="#010101" d="M163.2,107.6v11.3h13v-11.3h3.5v27h-3.5v-12.6h-13v12.6h-3.5v-27H163.2z"/>
	<path fill="#010101" d="M199.7,121.9h-10.5v9.7h11.7v2.9h-15.2v-27h14.6v2.9h-11.1v8.5h10.5V121.9z"/>
	<path fill="#010101" d="M209.8,126.1l-2.8,8.5h-3.6l9.2-27h4.2l9.2,27h-3.7l-2.9-8.5H209.8z M218.7,123.4l-2.6-7.8
		c-0.6-1.8-1-3.4-1.4-4.9h-0.1c-0.4,1.6-0.8,3.2-1.4,4.9l-2.6,7.8H218.7z"/>
	<path fill="#010101" d="M229.9,107.6h3.5v24H245v2.9h-15V107.6z"/>
	<path fill="#010101" d="M253.9,110.6h-8.2v-3h20v3h-8.2v24h-3.5V110.6z"/>
	<path fill="#010101" d="M272.2,107.6v11.3h13v-11.3h3.5v27h-3.5v-12.6h-13v12.6h-3.5v-27H272.2z"/>
	<path fill="#010101" d="M298.3,107.6v27h-3.5v-27H298.3z"/>
	<path fill="#010101" d="M318.3,121.9h-10.5v9.7h11.7v2.9h-15.2v-27h14.6v2.9h-11.1v8.5h10.5V121.9z"/>
	<path fill="#010101" d="M324,108c1.8-0.4,4.3-0.6,6.7-0.6c3.7,0,6.1,0.7,7.8,2.2c1.4,1.2,2.1,3,2.1,5.1c0,3.6-2.2,5.9-5.1,6.9v0.1
		c2.1,0.7,3.3,2.6,4,5.4c0.9,3.8,1.5,6.4,2.1,7.4H338c-0.4-0.8-1-3.1-1.8-6.4c-0.8-3.7-2.2-5.1-5.4-5.2h-3.3v11.7H324V108z
		 M327.5,120.2h3.6c3.7,0,6.1-2,6.1-5.1c0-3.5-2.5-5-6.2-5c-1.7,0-2.9,0.2-3.4,0.3V120.2z"/>
</g>
<path fill="#231F20" d="M146.4,190.9l-4.2-0.1c13.5,0,27.8,0.1,41.8,0.3c-30.5-1.7-66.6-3.2-90.2,0.4c-2.6-1.9-32.2-2.8-32.8-2.4
	c-3.1,0.2-6.2,0.3-9.3,0.5c-1.5,0.1-3.1,0.1-4.6,0.2c-0.3,0.1-0.6,0.1-0.9,0.2L47,190c0.1,0,0.2,0,0.3-0.1l1.6-0.1
	c2.2-0.1,4.3-0.2,6.4-0.3c-2.1,0.1-4.3,0.2-6.4,0.3l-1.6,0.1c-0.2,0-0.2,0-0.3,0.1l-0.7,0.1c-0.2,0-0.4,0.1-0.6,0.1
	c0-0.2-0.1-0.5-0.1-0.7l-0.1-0.4l0-0.2l0-0.1l0-0.1l0,0l0-0.1c-0.1-2.5-0.1-5-0.2-7.4c-0.1-5-0.2-10-0.3-15.1
	c-0.1-10.2-0.1-20.5-0.1-31c0.1-21,0.4-42.5,0.8-64.4c0.1-5,0.1-11.8,0.2-19.6c0-3.9,0.1-8.1,0.1-12.5c0-2.1,0-4.3,0.1-6.5
	c0-0.3,0-0.7,0.1-1c0.3,0,0.5,0,0.8,0l0.2,0l0.1,0l0,0l0.3,0l2.5,0c3.4,0,6.8,0.1,10.2,0.1c6.8,0.1,13.5,0.1,19.9,0.2
	c12.7,0.1,24.1,0.3,31.6,0.5c3.7,0.1,7.4,0.1,11.1,0.2c-6.2-0.2-6.2-0.2-12.3-0.3c15.5-0.5,29.6-1,43.2-1.4
	c-2.4-0.3-2.8-0.6-8.5-0.9l6.9,0.2c6.3-0.8,20.9-0.8,27.8-1.1c-1.5,0.4,3.9,0.5,8.7,0.6l-1.9-0.3c18.1,0.2,39.1-0.2,55.3-0.1
	c2.3,0,3.9,0.2,5,0.3l15.5-0.3c-1.2,0.6,12.9,0.5,5.5,0.9c11.6-0.7,23.4-0.3,34.4-1c11.5-0.1,23.1-0.1,34.9-0.2
	c5.9-0.1,11.8-0.1,17.8-0.2c3,0,5.9-0.1,8.9-0.1l3.2-0.1l2.5-0.1l0.1,3.6l0.1,6.2c0.1,4.3,0.1,8.7,0.2,13c0.2,8.7,0.4,17.3,0.5,25.9
	l0.2-1c0.4,14.3,1.5,26.9,1.1,44.3c0.8,12.4,1.2,30.1,2.3,35c0.2,14.3,0.8,20,1.1,34.1c0.6-3.6,0.7,13.7,1.2,6.7
	c0.8-9.3,0.1-9.8,0.8-17.8l-0.2,0.2c0.9-36.9,1.4-73.9,1.7-111.3c-0.1-6.8-0.2-13.8-0.2-20.8c0-8.9,0-17.9,0-27
	c-7.8,0-15.7,0-23.6,0c-6,0-11.9,0-17.8,0c-28,0.2-58.2,0.6-82.2,1.1c-5.7,0.2-9.8-0.3-14.7-0.6c-22.1,0.3-50.1,0.1-75,0.4
	c0.5,0,0.9,0,1.2,0c-13.2,0.1-23.1-0.5-36-0.4c0.1,0.2-1.9,0.2-2.9,0.3c-1.1-0.4-20.1,0-39.4,0.5c-9.6,0.2-19.4,0.4-26.9,0.6
	c-3.8,0.1-7.1,0.1-9.5,0.1c-1.2,0-2.3,0-3,0c-0.4,0-0.7,0-1,0c-0.3,0-0.6,0-0.7,0c-2,0-4.1,0.1-6.2,0.1c-1.5,0-2.9,0-4.4,0
	c0,2.5-0.1,4.9-0.1,7.4l-0.1,3.7l-0.1,2.5c-0.1,3.3-0.2,6.6-0.3,9.9c-0.2,6.6-0.4,13.1-0.6,19.6c-0.4,12.9-0.7,25.3-0.6,36.5
	c0.4,5.1,0.7,10.8,1.1,15.1c-0.3,4.1,0.3,4.9,0.2,9.9c-1.6,12.7-0.9,20.1-0.4,13.5c0.2,10.4,0.1,20.9,0.1,30.1
	c0.1,4.3,0.2,8.6,0.4,12.9c0.1,1.8,0,3.3,0,4.5c0,0.6-0.1,1.1-0.2,1.7c0,0.1,0,0.3-0.1,0.4c0,0.2,0,0.4-0.1,0.6
	c0,0.4-0.1,0.8-0.1,1.1c0.1,4.9,0.1,7.6,0.1,9.7c2.2,0,3.6,0.1,5.9,0.2c1.9,0,4.4,0.1,8.8,0.2c2.4,0.5,24.7-0.9,27.5-0.7l-1.6,0.1
	c11.4,0.1,19,1.1,30.1,1.2c31,0.4,64.8,0,93.4,0.2c0.3-0.6-6.3,0.1-6.7-0.6c16.9,0.1,34,0.8,51,0.9c3.1,0.2,6.8,0.4,8.2,0.6
	c5.5,0.2,3.2-0.3,7.2-0.2l0.5,0.5c5.8-0.4,8.5,0.6,14,0.4c0.3-0.2,2.3-0.2,4.2-0.2c0.1,0.5,6,0,5.7,0.5l0.1,0c1.2,0,2,0,3.5,0.1
	c2.2-0.2,23.2-1.7,25.5-1.9l1.1,0.1c3.1,0,4.5-0.4,2.6-0.5l3.9,0l-0.4,0l3.8,0c0.7,0,1.5,0.3,0.4,0.5c2.2-0.2,4.6-0.3,6.8-0.2
	c-6.1-0.3-13.6-0.8-19.9-1.4c2.6-0.2,7.3,0.1,10.1,0c3.4,0.4,10.3,0.7,15.7,0.9c1.2,0,2-0.6,4.7-0.4c1.3,0.4,3,0,5.3,0.3
	c-2.6,0.2-5.1,0.1-7.7,0.1c0.4,0.5,6.3,0.3,8.4,0.5c1-0.2,6,0,9.1-0.1c-1.4,0.5,2.5,0.3,4.4,0.6c2.1,0.1,3.5-0.1,2.6-0.3
	c0.7-0.5-8.5-0.3-5.5-0.9c0.8,0.3,5,0.2,7.2,0.1c0-0.3-1.5-0.2-0.1-0.5c2.5,0.1,5.1-0.3,6.6,0c-0.5,0.1-1.5,0-2.2,0
	c3.2,0-17.6,1.8-13.4,1.7c-1.1-0.2,18.5-1.7,16.3-1.7c-2-0.1,1.4-0.5-0.6-0.6l-2.3,0.3c-2.8-0.1-4-0.6-3-0.8c4.7,0-13.3,1.9-9.3,1.6
	l-1.6-0.1c1.7-0.2,6.2-0.3,8,0c0-0.3,2.3-0.4,4.2-0.5l0.7,0c2-0.1,4.7-0.1,3.4-0.4c-11.5,0,7.6-2.8-3.6-3c4.7,0.6-1.6,0.6-6.5,0.7
	c-0.5-0.2-2.7-0.5-6.2-0.7c-3.1,0-1.8,0.2-2.4,0.4c-1.7-0.1-4.9-0.3-4.5-0.6c-2.4,0.4-3.8-0.2-6.7-0.1c-2.5,0.2,0.2,0.2-1.6,0.4
	c-3.8,0-9.1-0.1-12.1-0.2c-1.2-0.3-4.7-0.8-2.1-1.3c5.7,0.1-2.2,0.8,3.8,0.7c-2.6-0.7,5.3-0.2,6.4-0.7c-1.9-0.3-5.8-0.3-9-0.2
	l0.6,0.1c-2.8,0.1-8.5,0.2-11.6-0.1c0.7-0.2-0.6-0.4,1.5-0.5l-3.9,0c-0.5,0.1-1,0.2,0.1,0.2c-1.8,0.2-3.7,0.1-5.1-0.1
	c-0.4-0.3-20.8,1.1-20.2,0.9c-2.8,0-3.5-0.4-6.2-0.1c-0.1,0.1,1.6,0,4,0c2.5-0.1,5.7-0.2,8.9-0.3c6.3-0.2,12.2-0.5,10.3-0.4
	c-2.4-0.3-31.9,1.3-33.7,0.8c-2.1,0-4.6,0.1-4.1,0.3c-3.5-0.1,1.1-0.5-1.5-0.7c-0.1,0,0.2,0.1-0.6,0.1l-2.4-0.3
	c-5.5,0.4-13.5-0.1-19.2,0.4c1.7-0.3,3.6-0.8,7.2-1l0.6,0.1c0.5-0.1,3.6-0.2,3.5-0.4c-3.5-0.2-6.5-0.1-10.2,0.1
	c-0.7-0.1-1.5-0.1-2-0.2c0,0,0.1,0.1,0.1,0.1c-1.2-0.2-1.1-0.2-0.6-0.3c0.1,0,0.1,0,0.3-0.1c-2.2-0.8-13.8,0.5-20.2,0.1
	c-1.9,0.1-0.2,0.1-2.5,0.3c-6.5-0.3-11-0.5-17.9-0.7c-2.2,0.3-2.4,0.5,0.3,0.8l-5.2-0.1c4.7-0.9-9.6-0.8-4.5-1.7
	c-1.5-0.2-4.6-0.2-7.5-0.1c-0.3,0.2-0.7,0.6-4.4,0.6c-5.1-0.3-3.9-0.2-8-0.5c-1-0.3,0.5-0.4,0.4-0.6c-6.5,0.4-5.6-0.6-11.7-0.6
	c-3.8,0.1-11.4,0.1-11.6,0.6C145.9,191.6,145.9,191.3,146.4,190.9"/>
<g>
</g>
<g>
</g>
<g>
</g>
<g>
</g>
<g>
</g>
<g>
</g>
</svg>
