<?xml version="1.0" encoding="utf-8"?>
<!-- Generator: Adobe Illustrator 18.1.0, SVG Export Plug-In . SVG Version: 6.00 Build 0)  -->
<!DOCTYPE svg PUBLIC "-//W3C//DTD SVG 1.1//EN" "http://www.w3.org/Graphics/SVG/1.1/DTD/svg11.dtd">
<svg version="1.1" id="Layer_1" xmlns="http://www.w3.org/2000/svg" xmlns:xlink="http://www.w3.org/1999/xlink" x="0px" y="0px"
	 viewBox="0 0 64.3 62.9" enable-background="new 0 0 64.3 62.9" xml:space="preserve">
<g>
	<g>
		
			<ellipse transform="matrix(-0.7216 0.6923 -0.6923 -0.7216 72.5168 34.9425)" fill="#C8C8C8" cx="29.2" cy="32.1" rx="6" ry="11.7"/>
		<g>
			<g>
				<path fill="#010101" d="M36.2,41.5c0,0,0.2-0.1,0.2-0.1c-0.8,0.3-1.6,0.4-2.5,0.3c0.9,0.1,1.9,0.1,2.8-0.4
					c0.9-0.5,1.4-1.3,1.6-2c0,0,0.1-0.2,0.2-0.3c0.1-0.2,0.1-0.4,0.2-0.6c0.1-0.5,0.1-0.9,0.1-0.9c0-0.4-0.1-0.7-0.2-1.1
					c0.1,0.2,0.1,0.5,0.1,0.8c0-0.3-0.1-0.5-0.1-0.8c-0.5-2.3-1.6-4.5-3.1-6.6c-0.4-0.6-1.3-1.6-2.2-2.5c-0.9-0.9-2-1.8-2.6-2.2
					c-0.2-0.1-0.3-0.3-0.5-0.4c0.3,0.2,0.3,0.2,0.6,0.4c-0.7-0.5-1.5-0.9-2.1-1.3c0.1,0.1,0.1,0.1,0.4,0.3l-0.3-0.2
					c-0.3-0.1-1.1-0.5-1.5-0.6c0.1,0-0.2-0.1-0.5-0.2l0.1,0.1c-1-0.4-2.2-0.6-3.1-0.6c-0.1,0-0.2,0-0.3,0c0,0-0.9,0.1-0.9,0.2
					c0.1-0.1-0.7,0.2-0.3,0.1c-0.6,0.3-1.2,0.7-1.6,1.3c-0.7,1-0.8,2.3-0.7,3.4c0.2,1.2,0.5,2.3,1.1,3.4l0-0.1
					c0.4,0.7,0.7,1.3,1.3,2.2c0.4,0.6,1,1.4,1.2,1.5c0.5,0.6,0.7,0.9,1.3,1.4c-0.1-0.2,0.5,0.5,0.3,0.2c-0.3-0.4-0.4-0.4-0.6-0.8
					l0,0c-1.3-1.6-2.5-3.3-3.2-5.3c-0.6-1.3-0.9-2.8-0.8-4.1c0.1-0.7,0.4-1.5,0.9-2c0.5-0.5,1.2-0.8,1.8-0.9c0.3-0.1,0.5-0.1,0.8,0
					c1.2-0.1,2.7,0.4,4,1c0,0,0,0-0.1,0c0.3,0.1,0.6,0.3,0.9,0.5c0.3,0.2,0.5,0.3,0.9,0.5c0,0,0.1,0,0.1,0.1c0,0,0.9,0.6,1.8,1.3
					c0.9,0.7,1.7,1.4,1.7,1.5l0.2,0.2c1.1,1.1,2,2.4,2.7,3.5c0.2,0.2,0.3,0.5,0.5,0.7c0.1,0.2,0.2,0.2,0.3,0.5
					c0.2,0.7,0.5,1,0.3,0.7c0.3,0.5,0.5,1.1,0.6,1.6c0.1,0.2,0.2,0.4,0.2,0.7c0.1,0.2,0.1,0.3,0.1,0.4c0.1,0.5,0.1,0.4,0.1,0.9
					c0,0.1,0,0.4,0.1,0.7c0,0.3,0,0.7,0,0.8l0-0.1c-0.1,0.6-0.3,1-0.6,1.5c-0.4,0.7-1.1,1.2-2,1.4c-0.8,0.2-1.7,0.1-2.5-0.1
					c0,0,0.3,0.1,0.4,0.1c-0.9-0.2-1.8-0.5-2.7-0.9c-0.1-0.1-0.3-0.2-0.4-0.2c-0.3-0.1-0.2-0.1-0.4-0.2l0,0
					c-0.3-0.1-0.4-0.3-0.7-0.4c0,0-0.1-0.1-0.2-0.1c0,0-0.3-0.2-0.3-0.2l0,0c0,0-0.1,0-0.2-0.1c-0.1,0-1.1-0.7-1.2-0.7l0,0
					c-0.1-0.1-0.2-0.1-0.1-0.1L27.3,38l0,0l-0.2-0.1c0,0-0.1-0.1,0,0c-0.1-0.1-0.2-0.1-0.3-0.2c0.2,0.2,0.5,0.5,0.8,0.8
					c-0.1-0.1-0.3-0.3-0.4-0.4c-0.1-0.1-0.4-0.4-0.6-0.6c-0.1,0-0.1,0-0.2-0.2c0-0.1-0.1-0.1-0.2-0.2c0.1,0.1,0.2,0.2,0.3,0.3
					c0,0-0.3-0.2-0.3-0.3c0,0-0.2-0.2-0.4-0.3c0.1,0-0.1-0.1-0.2-0.2c-0.1-0.1-0.1-0.1-0.1-0.1c0,0,0.3,0.3,0.2,0.2
					c0,0-0.2-0.2-0.3-0.3c0,0,0.1,0.1,0,0c-0.1-0.1-0.2-0.2-0.3-0.3c0,0,0.1,0.1,0.1,0.1c-0.1-0.1,0.8,0.6,0.6,0.5
					c0,0.1-0.8-0.7-0.7-0.6c0.1,0.1-0.1,0,0,0l0.1,0.1c0.1,0.1,0.1,0.2,0.1,0.1c-0.2-0.2,0.6,0.5,0.4,0.3l0.1,0.1
					c-0.1-0.1-0.3-0.2-0.3-0.3c0,0-0.1-0.1-0.2-0.1l0,0c-0.1-0.1-0.2-0.2-0.2-0.1c0.5,0.5-0.4-0.2,0,0.3c-0.2-0.2,0.1,0,0.3,0.2
					c0,0,0.1,0.1,0.2,0.3c0.1,0.1,0.1,0.1,0.1,0.1c0.1,0.1,0.2,0.2,0.2,0.2c0.1,0.1,0.2,0.2,0.3,0.3c0.1,0.1,0,0,0.1,0
					c0.2,0.1,0.4,0.4,0.5,0.5c0,0.1,0.2,0.2,0,0.1c-0.3-0.2,0.1,0-0.1-0.2c0.1,0.1-0.2-0.2-0.3-0.2c0.1,0.1,0.2,0.2,0.4,0.3l0,0
					c0.1,0.1,0.4,0.3,0.5,0.4c0,0,0,0-0.1,0l0.2,0.1c0,0,0,0,0,0c0.1,0.1,0.2,0.1,0.2,0.2c0,0,1,0.6,1,0.6c0.1,0.1,0.2,0.1,0.3,0.2
					c0,0-0.3-0.2-0.6-0.4c-0.3-0.2-0.6-0.4-0.5-0.3c0.1,0.1,1.5,1,1.6,1c0.1,0.1,0.2,0.1,0.2,0.1c0.2,0.1-0.1,0,0.1,0.1c0,0,0,0,0,0
					l0.1,0.1c0.3,0.1,0.7,0.4,1,0.5c-0.1,0-0.2,0-0.4-0.1l0,0c0,0-0.2-0.1-0.2-0.1c0.2,0.1,0.3,0.2,0.5,0.2l0.1,0.1l0,0
					c0.1,0,0.1,0,0,0l0,0c0.1,0.1,0.7,0.3,1.1,0.4c0.1,0,0,0,0.1,0c0.4,0.1,0.6,0.2,1,0.3c0.1,0,0.1,0,0,0l0.3,0.1
					c-0.3,0,0.5,0.2,0.2,0.1c0.1,0,0.3,0,0.4,0.1c0,0,0,0,0.3,0c0.3,0,0.2,0,0.5,0c0.1,0,0,0,0,0c0.4,0,0.3,0.1,0.7,0
					c0.2,0,0.7-0.1,0.7-0.2C36.2,41.4,36.2,41.5,36.2,41.5z"/>
			</g>
		</g>
	</g>
	<g>
		
			<ellipse transform="matrix(-0.9857 -0.1688 0.1688 -0.9857 80.5813 63.0042)" fill="#C8C8C8" cx="43" cy="28.1" rx="6" ry="11.7"/>
		<g>
			<g>
				<path fill="#010101" d="M39.5,39.3c0,0,0.2,0.2,0.2,0.1C39,39,38.5,38.3,38,37.6c0.4,0.8,1.1,1.6,2,2c0.9,0.5,1.9,0.4,2.6,0.1
					c0,0,0.2,0,0.4,0c0.2-0.1,0.4-0.2,0.6-0.2c0.4-0.2,0.8-0.5,0.8-0.5c0.3-0.3,0.5-0.5,0.8-0.8c-0.2,0.2-0.3,0.4-0.5,0.5
					c0.2-0.2,0.4-0.3,0.5-0.5c1.6-1.7,2.7-4,3.5-6.4c0.2-0.7,0.6-2,0.7-3.3c0.2-1.3,0.3-2.7,0.3-3.4c0-0.2,0-0.4,0-0.6
					c0,0.4,0,0.4,0,0.7c0-0.9-0.1-1.7-0.3-2.5c0,0.1,0,0.2,0,0.5l0-0.4c-0.1-0.4-0.2-1.2-0.4-1.6c0,0.1,0-0.2-0.1-0.5l0,0.1
					c-0.3-1-0.8-2.1-1.4-2.9c-0.1-0.1-0.1-0.2-0.2-0.2c0,0-0.7-0.6-0.7-0.6c0.1,0-0.6-0.5-0.2-0.2c-0.6-0.3-1.3-0.6-2-0.5
					c-1.2,0-2.3,0.7-3.2,1.5c-0.9,0.8-1.5,1.8-2.1,2.8l0,0c-0.4,0.7-0.6,1.4-1,2.3c-0.2,0.7-0.5,1.6-0.5,1.9
					c-0.2,0.8-0.2,1.1-0.4,1.9c0.1-0.2-0.1,0.8,0,0.4c0.1-0.5,0.1-0.5,0.2-1l0,0c0.5-2,1.2-4,2.3-5.7c0.7-1.2,1.7-2.4,2.9-3.1
					c0.6-0.4,1.4-0.6,2.1-0.5c0.7,0.1,1.4,0.5,1.8,0.9c0.2,0.2,0.4,0.4,0.5,0.6c0.8,0.9,1.3,2.4,1.5,3.8c0,0,0,0,0-0.1
					c0.1,0.4,0.1,0.7,0.2,1c0,0.3,0.1,0.6,0.1,1c0,0,0,0.1,0,0.2c0,0.1,0.1,1.1,0,2.2c0,1.1-0.2,2.2-0.2,2.3l0,0.2
					c-0.3,1.5-0.8,3-1.2,4.2c-0.1,0.3-0.2,0.6-0.3,0.8c-0.1,0.2-0.1,0.3-0.2,0.5c-0.4,0.6-0.6,1-0.4,0.7c-0.3,0.5-0.6,1-0.9,1.4
					c-0.1,0.2-0.3,0.4-0.4,0.6c-0.1,0.2-0.2,0.2-0.3,0.3c-0.3,0.4-0.3,0.3-0.6,0.6c-0.1,0-0.3,0.3-0.6,0.5c-0.3,0.2-0.5,0.4-0.6,0.4
					l0.1,0c-0.6,0.3-1,0.4-1.5,0.4c-0.8,0.1-1.6-0.2-2.3-0.8c-0.6-0.5-1.1-1.3-1.4-2c0,0,0.2,0.3,0.1,0.3c-0.4-0.8-0.7-1.8-0.9-2.7
					c0-0.1,0-0.3-0.1-0.5c0-0.3,0-0.2-0.1-0.4l0,0c-0.1-0.3,0-0.5-0.1-0.8c0,0,0-0.1,0-0.2c0,0,0-0.3,0-0.3l0,0c0-0.1,0-0.1,0-0.2
					c0-0.1-0.1-1.3-0.1-1.4l0-0.1c0-0.2,0-0.3,0-0.1l0-0.2l0,0l0-0.2c0,0,0-0.1,0,0c0-0.1,0-0.3,0-0.4c0,0.3-0.1,0.7-0.1,1.1
					c0-0.1,0-0.4,0-0.6c0-0.2,0.1-0.6,0.1-0.9c0-0.1,0-0.1,0-0.3c0-0.1,0-0.2,0-0.3c0,0.1,0,0.3,0,0.4c0,0,0.1-0.4,0.1-0.5
					c0-0.1,0-0.3,0.1-0.5c0,0.1,0-0.1,0.1-0.2c0-0.1,0-0.2,0-0.1c0,0-0.1,0.5-0.1,0.3c0,0,0-0.3,0.1-0.4c0,0,0,0.1,0,0
					c0-0.1,0-0.3,0.1-0.4c0,0,0,0.1,0,0.1c0-0.2,0,1,0,0.8c0,0.1,0.1-1,0-0.9c0,0.1,0-0.1,0,0l0,0.1c0,0.2-0.1,0.2-0.1,0.2
					c0-0.3,0,0.8,0,0.5l0,0.1c0-0.1,0-0.3,0.1-0.4c0,0,0-0.1,0-0.2l0,0c0-0.1,0-0.3,0-0.2c-0.1,0.6-0.1-0.4-0.2,0.2
					c0.1-0.3,0,0.1,0,0.4c0,0,0,0.1-0.1,0.3c0,0.2,0,0.1,0,0.1c0,0.1,0,0.3-0.1,0.2c0,0.1,0,0.2,0,0.4c0,0.1,0,0,0,0.1
					c0,0.2-0.1,0.5-0.1,0.7c0,0.1-0.1,0.3-0.1,0.1c0-0.3,0,0.1,0-0.2c0,0.1,0-0.3,0-0.4c0,0.1-0.1,0.3,0,0.5l0,0c0,0.2,0,0.5,0,0.7
					c0,0,0,0,0-0.1l0,0.2c0,0,0,0.1,0,0c0,0.1,0,0.2,0,0.3c0,0,0.1,1.2,0.1,1.1c0,0.2,0,0.2,0,0.4c0,0,0-0.4-0.1-0.7
					c0-0.4,0-0.7,0-0.6c0,0.1,0.1,1.8,0.1,1.9c0,0.1,0,0.3,0,0.2c0,0.2,0-0.1,0,0.1c0,0,0,0,0,0l0,0.1c0.1,0.3,0.1,0.8,0.2,1.1
					c0-0.1-0.1-0.2-0.1-0.4l0,0c0,0,0-0.2-0.1-0.2c0,0.2,0.1,0.4,0.1,0.6l0,0.1l0,0c0,0.1,0,0.1,0,0l0,0c0,0.1,0.2,0.8,0.3,1.1
					c0,0.1,0,0,0.1,0.1c0.1,0.4,0.2,0.6,0.3,1c0.1,0.1,0.1,0.1,0,0l0.1,0.3c-0.2-0.2,0.2,0.5,0,0.3c0,0.1,0.1,0.2,0.2,0.4
					c0,0,0,0,0.2,0.2c0.1,0.3,0.1,0.2,0.2,0.4c0,0.1,0,0,0,0c0.3,0.3,0.2,0.3,0.4,0.6c0.2,0.2,0.5,0.5,0.5,0.4
					C39.6,39.3,39.6,39.3,39.5,39.3z"/>
			</g>
		</g>
	</g>
	
		<ellipse transform="matrix(-0.9606 0.278 -0.278 -0.9606 85.3926 64.1897)" fill="#010101" cx="38.1" cy="38.1" rx="3.2" ry="3.3"/>
</g>
<g>
</g>
<g>
</g>
<g>
</g>
<g>
</g>
<g>
</g>
<g>
</g>
</svg>
